<?xml version="1.0" standalone="no"?>
<!DOCTYPE svg PUBLIC "-//W3C//DTD SVG 20010904//EN"
 "http://www.w3.org/TR/2001/REC-SVG-20010904/DTD/svg10.dtd">
<svg version="1.0" xmlns="http://www.w3.org/2000/svg"
 width="300.000000pt" height="300.000000pt" viewBox="0 0 300.000000 300.000000"
 preserveAspectRatio="xMidYMid meet">
<metadata>
Created by potrace 1.11, written by Peter Selinger 2001-2013
</metadata>
<g transform="translate(0.000000,300.000000) scale(0.100000,-0.100000)"
fill="#000000" stroke="none">
<path d="M1399 2766 c-2 -2 -28 -7 -57 -10 -410 -49 -826 -337 -1047 -726 -37
-65 -114 -231 -120 -260 -2 -8 -12 -40 -23 -71 -11 -31 -26 -83 -33 -115 -7
-33 -13 -61 -14 -64 -1 -3 -5 -27 -10 -55 -4 -27 -10 -59 -13 -70 -2 -11 -6
-92 -8 -180 -3 -164 13 -279 51 -360 7 -17 18 -42 23 -56 6 -14 33 -55 60 -92
28 -36 47 -69 44 -73 -4 -4 -2 -4 4 -1 11 6 49 -27 56 -48 2 -5 6 -9 11 -7 12
4 87 -55 79 -63 -4 -3 -2 -6 3 -5 22 5 36 -1 29 -12 -4 -6 -3 -8 2 -5 6 3 43
-10 83 -29 40 -19 79 -34 86 -34 8 0 17 -4 20 -10 3 -5 17 -10 30 -10 13 0 27
-5 30 -11 4 -5 12 -8 18 -6 7 2 20 0 29 -4 9 -5 34 -12 55 -15 21 -3 43 -9 48
-12 6 -4 19 -7 30 -8 37 -4 110 -15 125 -19 8 -2 44 -7 80 -10 36 -3 79 -8 95
-10 17 -2 65 -5 108 -6 49 -1 77 -5 77 -13 0 -7 4 -6 9 2 9 15 17 15 44 1 9
-5 17 -6 17 -1 0 5 23 6 50 2 28 -4 53 -4 55 0 2 4 25 4 50 0 25 -4 48 -3 51
2 3 5 12 4 20 -3 8 -6 14 -7 14 -3 0 5 18 9 39 9 23 0 37 -4 33 -10 -3 -5 2
-4 11 4 14 11 17 11 17 0 0 -10 3 -10 8 -3 4 6 53 14 112 18 58 3 120 8 138
11 17 3 46 7 63 9 17 3 33 7 37 10 3 3 11 1 19 -5 8 -7 13 -8 13 -1 0 9 87 28
118 25 6 0 12 4 12 9 0 6 9 8 20 5 10 -3 20 -1 22 5 2 5 20 10 40 11 20 1 34
4 32 6 -5 5 106 51 124 51 6 0 12 5 12 10 0 6 6 10 13 10 22 0 137 81 189 134
28 28 54 50 59 49 5 -2 6 4 3 12 -4 8 -1 15 5 15 6 0 11 6 11 14 0 8 10 22 22
30 12 9 17 16 11 16 -8 0 -5 12 7 33 23 40 55 134 67 197 10 55 10 298 0 360
-29 173 -50 259 -109 435 -89 269 -195 444 -377 624 -177 174 -396 300 -603
345 -40 9 -84 19 -98 22 -30 7 -325 16 -331 10z"/>
</g>
</svg>
